<svg width="22" height="22" viewBox="0 0 22 22" fill="none" xmlns="http://www.w3.org/2000/svg">
<path id="Vector" d="M20.0756 10.2482C20.0792 11.6373 19.7546 13.0076 19.1284 14.2476C18.3858 15.7334 17.2442 16.9831 15.8315 17.8567C14.4188 18.7304 12.7907 19.1935 11.1297 19.1941C9.74058 19.1977 8.37027 18.8732 7.13035 18.2469L1.13135 20.2466L3.13102 14.2476C2.50473 13.0076 2.18018 11.6373 2.1838 10.2482C2.18445 8.58718 2.64753 6.95913 3.52118 5.54642C4.39483 4.1337 5.64455 2.99212 7.13035 2.24954C8.37027 1.62326 9.74058 1.29871 11.1297 1.30233H11.6559C13.8496 1.42336 15.9216 2.34928 17.4751 3.90281C19.0286 5.45633 19.9545 7.5283 20.0756 9.72199V10.2482Z" stroke="white" stroke-width="2.10491" stroke-linecap="round" stroke-linejoin="round"/>
</svg>
