<svg width="16" height="16" viewBox="0 0 16 16" fill="none" xmlns="http://www.w3.org/2000/svg">
<path id="Vector" d="M4.59998 7.5L7.39998 1.2C7.95693 1.2 8.49107 1.42125 8.8849 1.81508C9.27873 2.2089 9.49998 2.74305 9.49998 3.3V6.1H13.462C13.6649 6.0977 13.8659 6.13955 14.0511 6.22265C14.2362 6.30575 14.4011 6.42811 14.5343 6.58126C14.6674 6.73441 14.7657 6.91468 14.8223 7.10958C14.8789 7.30448 14.8924 7.50935 14.862 7.71L13.896 14.01C13.8453 14.3438 13.6758 14.6481 13.4185 14.8668C13.1612 15.0855 12.8336 15.2038 12.496 15.2H4.59998M4.59998 7.5V15.2M4.59998 7.5H2.49998C2.12867 7.5 1.77258 7.6475 1.51003 7.91005C1.24748 8.1726 1.09998 8.5287 1.09998 8.9V13.8C1.09998 14.1713 1.24748 14.5274 1.51003 14.7899C1.77258 15.0525 2.12867 15.2 2.49998 15.2H4.59998" stroke="white" stroke-width="1.4" stroke-linecap="round" stroke-linejoin="round"/>
</svg>
