<svg width="21" height="23" viewBox="0 0 21 23" fill="none" xmlns="http://www.w3.org/2000/svg">
<g id="Group 16">
<path id="Vector" d="M16.8382 7.54423C18.5036 7.54423 19.8537 6.19416 19.8537 4.52876C19.8537 2.86337 18.5036 1.5133 16.8382 1.5133C15.1728 1.5133 13.8228 2.86337 13.8228 4.52876C13.8228 6.19416 15.1728 7.54423 16.8382 7.54423Z" stroke="white" stroke-width="2.01031" stroke-linecap="round" stroke-linejoin="round"/>
<path id="Vector_2" d="M4.77621 14.5803C6.4416 14.5803 7.79167 13.2302 7.79167 11.5649C7.79167 9.89945 6.4416 8.54939 4.77621 8.54939C3.11081 8.54939 1.76074 9.89945 1.76074 11.5649C1.76074 13.2302 3.11081 14.5803 4.77621 14.5803Z" stroke="white" stroke-width="2.01031" stroke-linecap="round" stroke-linejoin="round"/>
<path id="Vector_3" d="M16.8382 21.6164C18.5036 21.6164 19.8537 20.2663 19.8537 18.6009C19.8537 16.9355 18.5036 15.5855 16.8382 15.5855C15.1728 15.5855 13.8228 16.9355 13.8228 18.6009C13.8228 20.2663 15.1728 21.6164 16.8382 21.6164Z" stroke="white" stroke-width="2.01031" stroke-linecap="round" stroke-linejoin="round"/>
<path id="Vector_4" d="M7.37988 13.0826L14.2451 17.0832" stroke="white" stroke-width="2.01031" stroke-linecap="round" stroke-linejoin="round"/>
<path id="Vector_5" d="M14.235 6.04655L7.37988 10.0471" stroke="white" stroke-width="2.01031" stroke-linecap="round" stroke-linejoin="round"/>
</g>
</svg>
